<svg xmlns="http://www.w3.org/2000/svg" xmlns:xlink="http://www.w3.org/1999/xlink" id="Layer_1" x="0px" y="0px" viewBox="0 0 166 34" style="enable-background:new 0 0 166 34;" xml:space="preserve"><style type="text/css">	.st0{fill:#F2F2F2;}</style><path class="st0" d="M0,13.6l7.5-3.2l0.8,2.3c1.1-0.9,2.2-1.5,3.4-1.9c1.1-0.4,2.4-0.6,3.6-0.6c1,0,1.8,0.2,2.6,0.6  c0.8,0.4,1.4,1.1,1.8,2c0.5-0.3,1-0.7,1.6-1c0.6-0.3,1.1-0.6,1.7-0.8c0.6-0.3,1.3-0.4,1.9-0.6c0.7-0.1,1.3-0.2,2.1-0.2  c0.7,0,1.4,0.1,2,0.4c0.6,0.2,1.2,0.6,1.6,1.1c0.5,0.5,0.8,1.2,1.1,2c0.3,0.8,0.4,1.7,0.4,2.9v9.7h-8.5V15.9c0-0.5-0.1-1-0.4-1.2  c-0.2-0.3-0.6-0.4-1.1-0.4c-0.2,0-0.5,0.1-0.8,0.2c-0.3,0.1-0.6,0.3-0.9,0.5v11.2h-8.5V15.9c0-0.5-0.1-1-0.4-1.2  c-0.2-0.3-0.6-0.4-1.1-0.4c-0.3,0-0.6,0.1-1,0.2c-0.4,0.1-0.7,0.3-0.9,0.6v11H0V13.6z"></path><path class="st0" d="M42.5,7.8c-0.8,0-1.4-0.1-2-0.3c-0.6-0.2-1-0.4-1.4-0.7c-0.4-0.3-0.6-0.7-0.8-1c-0.2-0.4-0.3-0.8-0.3-1.3  c0-0.5,0.1-0.9,0.3-1.3c0.2-0.4,0.4-0.8,0.8-1c0.4-0.3,0.8-0.5,1.4-0.7c0.6-0.2,1.2-0.3,2-0.3c0.8,0,1.5,0.1,2,0.3  c0.6,0.2,1,0.4,1.4,0.7c0.4,0.3,0.6,0.6,0.8,1C46.9,3.7,47,4.1,47,4.5c0,0.5-0.1,0.9-0.3,1.3c-0.2,0.4-0.4,0.7-0.8,1  c-0.4,0.3-0.8,0.5-1.4,0.7C44,7.8,43.3,7.8,42.5,7.8z M38.3,10.5h8.5v15.7h-8.5V10.5z"></path><path class="st0" d="M53.2,12.8l8.3-2.3v2.3c1.1-0.9,2.2-1.5,3.4-1.9c1.2-0.4,2.4-0.6,3.6-0.6c0.7,0,1.4,0.1,2,0.4  c0.6,0.2,1.2,0.6,1.6,1.1c0.5,0.5,0.8,1.2,1.1,2c0.3,0.8,0.4,1.7,0.4,2.9v9.7h-8.5V15.9c0-0.5-0.1-1-0.4-1.2  c-0.2-0.3-0.6-0.4-1.1-0.4c-0.3,0-0.6,0.1-1,0.2c-0.4,0.1-0.7,0.3-0.9,0.6v11h-8.5V12.8z"></path><path class="st0" d="M78.8,18.3c0-1.2,0.2-2.4,0.6-3.4c0.4-1,1-1.9,1.8-2.6c0.8-0.7,1.8-1.3,2.9-1.6c1.1-0.4,2.4-0.6,3.8-0.6  c1.1,0,2,0.1,2.9,0.4c0.9,0.3,1.6,0.6,2.2,1l0-8.3l8.5-3.3v26.2h-7.8l-0.6-2c-0.3,0.3-0.6,0.6-1.1,0.8c-0.4,0.3-0.9,0.5-1.3,0.7  c-0.5,0.2-1,0.4-1.6,0.5c-0.6,0.1-1.2,0.2-1.8,0.2c-1.2,0-2.3-0.2-3.3-0.5c-1-0.3-1.9-0.9-2.7-1.5c-0.8-0.7-1.4-1.5-1.8-2.6  C79.1,20.8,78.8,19.7,78.8,18.3z M87.6,18c0,0.9,0.1,1.7,0.3,2.3c0.2,0.6,0.4,1.2,0.7,1.6c0.3,0.4,0.7,0.7,1.1,0.9  c0.4,0.2,0.9,0.3,1.4,0.3c0.4,0,0.8-0.1,1.1-0.2c0.4-0.1,0.7-0.3,1-0.6v-8.7c-0.3-0.2-0.6-0.4-0.9-0.5c-0.3-0.1-0.6-0.2-1-0.2  c-0.5,0-1,0.1-1.5,0.3c-0.4,0.2-0.8,0.5-1.2,0.9c-0.3,0.4-0.6,0.9-0.8,1.6C87.7,16.4,87.6,17.1,87.6,18z"></path><path class="st0" d="M107,18.2c0-0.9,0.1-1.7,0.4-2.5c0.3-0.8,0.7-1.4,1.2-2c0.5-0.6,1.1-1.1,1.8-1.6c0.7-0.4,1.4-0.8,2.2-1.1  c0.8-0.3,1.6-0.5,2.5-0.7c0.9-0.1,1.7-0.2,2.6-0.2c1.2,0,2.2,0.1,3.2,0.4c1,0.2,1.8,0.6,2.6,1c0.8,0.4,1.4,0.9,1.9,1.4  c0.6,0.5,1,1.1,1.4,1.8c0.4,0.6,0.6,1.2,0.8,1.9c0.2,0.7,0.3,1.3,0.3,1.9L116,20c0.2,1.2,0.7,2.1,1.4,2.7c0.7,0.6,1.7,1,2.9,1  c0.7,0,1.3-0.1,1.9-0.3c0.6-0.2,3.5-1.2,3.8-1.5l-1.2,3.1c-0.4,0.2-0.8,0.4-1.3,0.6c-0.4,0.2-1,0.3-1.5,0.5  c-0.5,0.1-1.2,0.2-1.8,0.3c-0.7,0.1-1.4,0.1-2.2,0.1c-1.9,0-3.5-0.2-4.9-0.7c-1.4-0.5-2.5-1.1-3.4-1.8c-0.9-0.8-1.6-1.6-2-2.6  C107.2,20.4,107,19.3,107,18.2z M120.2,16.9c0-1.4-0.2-2.4-0.5-3c-0.3-0.6-0.8-0.9-1.5-0.9c-0.3,0-0.7,0.1-1,0.3  c-0.3,0.2-0.5,0.4-0.8,0.8c-0.2,0.4-0.4,0.8-0.5,1.4c-0.1,0.6-0.2,1.2-0.2,2L120.2,16.9z"></path><path class="st0" d="M130.7,10.5h8.9l3.8,9.7l3.8-9.7h4.2l-6.7,16c-0.4,1-0.9,1.9-1.4,2.7c-0.5,0.8-1.1,1.5-1.7,2.1  c-0.6,0.6-1.4,1.1-2.2,1.6c-0.8,0.4-1.8,0.8-2.9,1.2l-1.1-2.6c0.8-0.3,1.6-0.6,2.2-1c0.6-0.4,1.1-0.8,1.6-1.2c0.4-0.4,0.8-0.8,1-1.2  c0.3-0.4,0.5-0.8,0.6-1.2l0.3-0.7h-3.8L130.7,10.5z"></path><path class="st0" d="M156.4,22.8c0-0.5,0.1-1,0.3-1.4c0.2-0.4,0.5-0.8,0.9-1.1c0.4-0.3,0.9-0.6,1.5-0.8c0.6-0.2,1.3-0.3,2.2-0.3  c0.8,0,1.6,0.1,2.2,0.3c0.6,0.2,1.1,0.4,1.5,0.8c0.4,0.3,0.7,0.7,0.8,1.1c0.2,0.4,0.3,0.9,0.3,1.4c0,0.5-0.1,1-0.3,1.4  c-0.2,0.4-0.5,0.8-0.8,1.1c-0.4,0.3-0.9,0.6-1.5,0.8c-0.6,0.2-1.3,0.3-2.2,0.3c-0.9,0-1.6-0.1-2.2-0.3c-0.6-0.2-1.1-0.4-1.5-0.8  c-0.4-0.3-0.7-0.7-0.9-1.1C156.4,23.8,156.4,23.3,156.4,22.8z"></path></svg>